<?xml version="1.0" encoding="UTF-8"?>
<!DOCTYPE svg PUBLIC "-//W3C//DTD SVG 1.1//EN" "http://www.w3.org/Graphics/SVG/1.1/DTD/svg11.dtd">
<!-- Creator: CorelDRAW 2021 (64-Bit) -->
<svg xmlns="http://www.w3.org/2000/svg" xml:space="preserve" width="8.5in" height="11in" version="1.1" style="shape-rendering:geometricPrecision; text-rendering:geometricPrecision; image-rendering:optimizeQuality; fill-rule:evenodd; clip-rule:evenodd"
viewBox="0 0 8500 11000"
 xmlns:xlink="http://www.w3.org/1999/xlink"
 xmlns:xodm="http://www.corel.com/coreldraw/odm/2003">
 <defs>
  <style type="text/css">
   <![CDATA[
    .str0 {stroke:#FCFCFD;stroke-width:13.89;stroke-linecap:round;stroke-linejoin:round;stroke-miterlimit:2.61313}
    .fil4 {fill:none}
    .fil2 {fill:#E2004F}
    .fil3 {fill:#FCFCFD}
    .fil0 {fill:#E2004F;fill-rule:nonzero}
    .fil1 {fill:white;fill-rule:nonzero}
   ]]>
  </style>
 </defs>
 <g id="Layer_x0020_1">
  <metadata id="CorelCorpID_0Corel-Layer"/>
  <g id="_2167601185376">
   <g>
    <g id="icon">
     <g id="bg">
      <path class="fil0" d="M5114.43 2682.14c-23.65,0 -45.88,-9.21 -62.61,-25.93l-368.28 -368.28c-16.72,-16.72 -25.93,-38.96 -25.93,-62.61 0,-23.65 9.21,-45.88 25.93,-62.6l368.29 -368.29c16.72,-16.73 38.96,-25.94 62.61,-25.94 23.65,0 45.88,9.21 62.61,25.94l368.28 368.28c16.72,16.72 25.93,38.96 25.93,62.61 0,23.65 -9.21,45.89 -25.93,62.61l-368.28 368.29c-16.72,16.72 -38.96,25.93 -62.61,25.93z"/>
      <g>
       <path class="fil0" d="M5114.43 1784.11c-19.47,0 -37.78,7.58 -51.56,21.36l-368.28 368.28c-13.77,13.77 -21.36,32.08 -21.36,51.56 0,19.48 7.59,37.79 21.36,51.56l368.28 368.29c13.77,13.77 32.08,21.35 51.56,21.35 19.48,0 37.79,-7.59 51.56,-21.35l368.28 -368.29c13.77,-13.77 21.36,-32.08 21.36,-51.56 0,-19.48 -7.59,-37.79 -21.36,-51.56l-368.29 -368.29c-13.77,-13.78 -32.08,-21.36 -51.56,-21.36l0 0zm0 -31.25c26.66,0 53.31,10.17 73.65,30.51l368.29 368.28c40.68,40.67 40.68,106.63 0,147.31l-368.29 368.29c-20.34,20.34 -47,30.5 -73.65,30.5 -26.66,0 -53.31,-10.17 -73.65,-30.5l-368.29 -368.29c-40.68,-40.68 -40.68,-106.64 0,-147.31l368.29 -368.28c20.34,-20.34 47,-30.51 73.65,-30.51z"/>
      </g>
     </g>
     <path id="_" class="fil1" d="M5069.77 2128.63l0 -22.32 89.27 0 0 22.32 -89.27 0zm-61.37 0l-11.16 0c-21.54,0.08 -38.98,17.52 -39.06,39.06l0 145.07c0.09,21.54 17.52,38.97 39.06,39.06l11.16 0 0 -223.19zm145.07 184.13l-22.31 0 0 -27.9c-0,-9.25 -7.5,-16.74 -16.74,-16.74l-100.42 0.01c-9.24,-0.01 -16.74,7.49 -16.74,16.73l0 27.9 -22.32 0 0 223.19 178.55 0 -0.01 -223.19zm-72.52 -5.57c-0.08,-21.54 -17.52,-38.98 -39.05,-39.07l-11.16 0.01 0 223.19 11.16 -0c21.54,-0.09 38.97,-17.53 39.06,-39.06l-0 -145.06z" data-name=" "/>
    </g>
   </g>
   <ellipse class="fil2" cx="5058.61" cy="2321.13" rx="174.81" ry="256.65"/>
   <rect class="fil3" x="5033.34" y="2140.83" width="143.83" height="171.93" rx="4.79" ry="4.69"/>
   <rect class="fil3" x="5191.63" y="2142" width="87.14" height="171.93" rx="6.61" ry="10.68"/>
   <rect class="fil3" x="4930.34" y="2142" width="87.14" height="171.93" rx="9.18" ry="14.82"/>
   <polyline class="fil4 str0" points="4978.58,2161.2 4978.58,2090.5 5250.24,2090.5 5250.24,2166.76 "/>
  </g>
 </g>
</svg>
